<svg version="1.1" id="Layer_1" xmlns="http://www.w3.org/2000/svg" xmlns:xlink="http://www.w3.org/1999/xlink" x="0px" y="0px"
	 width="100%" viewBox="0 0 500 188" enable-background="new 0 0 500 188" xml:space="preserve">
<path fill="#010101" opacity="1.000000" stroke="none" 
	d="
M320.000000,189.000000 
	C213.333359,189.000000 107.166702,189.000000 1.000043,189.000000 
	C1.000028,126.333366 1.000028,63.666729 1.000014,1.000068 
	C167.666611,1.000045 334.333221,1.000045 500.999878,1.000023 
	C500.999908,63.666595 500.999908,126.333191 500.999939,188.999893 
	C440.833344,189.000000 380.666656,189.000000 320.000000,189.000000 
M26.552931,64.269333 
	C26.285355,64.439522 26.174055,64.681679 25.708578,65.462921 
	C22.141830,71.994835 18.575085,78.526749 14.592162,85.432518 
	C14.439975,85.954552 14.287786,86.476578 13.888172,87.407562 
	C13.888172,87.407562 13.858699,87.884628 13.355909,88.321251 
	C12.937143,89.566216 12.518376,90.811172 11.688652,92.652466 
	C10.879683,94.829926 9.862174,96.954964 9.299204,99.194267 
	C7.268396,107.272133 7.531984,115.042152 12.954060,121.949562 
	C18.525789,129.047607 25.570179,130.097092 32.396492,124.268715 
	C36.028240,121.167885 39.023930,117.291595 42.132317,113.617760 
	C44.694355,110.589645 46.999668,107.344315 49.418758,104.195244 
	C50.030197,105.406479 50.059875,106.252365 49.780766,106.979774 
	C43.712242,122.795601 37.935272,138.735641 31.357279,154.337723 
	C28.614906,160.842255 24.450397,166.835922 20.296814,172.604080 
	C19.007109,174.395126 15.626472,174.680527 13.203088,175.655228 
	C12.668172,173.078949 11.969853,170.520981 11.678467,167.917435 
	C11.561317,166.870697 12.161821,165.621902 12.734235,164.638916 
	C17.400267,156.625961 22.123112,148.645935 26.865107,140.677567 
	C27.712471,139.253662 28.728121,137.929901 29.666071,136.559906 
	C27.897112,136.214523 26.672827,136.370773 25.918596,137.049423 
	C20.971453,141.500854 15.700802,145.699158 11.385455,150.711624 
	C8.102804,154.524567 5.359383,159.160217 3.653232,163.890488 
	C0.877703,171.585571 4.027529,178.399643 10.902531,182.038956 
	C18.580162,186.103149 23.933640,184.987701 29.640108,177.896713 
	C31.718924,175.313522 33.635300,172.559113 35.310692,169.698273 
	C47.462769,148.947998 55.001610,126.173653 64.421677,103.628799 
	C64.574089,103.071861 64.726494,102.514915 65.071365,101.645332 
	C65.071365,101.645332 65.064651,101.278267 65.595695,100.756882 
	C66.352715,98.136909 67.109734,95.516930 68.236778,92.309158 
	C69.911911,89.061401 71.846169,85.917526 73.199860,82.540901 
	C75.106567,77.784836 71.578964,75.236755 68.189758,73.619652 
	C66.585426,72.854179 63.021275,73.468048 61.941914,74.775383 
	C55.179878,82.965675 49.152145,91.767014 42.311840,99.886292 
	C37.416439,105.696991 31.818213,110.969635 26.113300,116.006325 
	C24.684988,117.267311 21.189360,117.550758 19.492826,116.662315 
	C18.369637,116.074127 18.672546,112.603256 18.518185,110.410156 
	C18.463472,109.632828 18.888887,108.796165 19.189169,108.023125 
	C26.596788,88.953117 36.240101,71.205902 50.204403,56.059711 
	C51.991283,54.121593 54.051895,52.375492 56.217899,50.875816 
	C57.134415,50.241245 58.809155,50.069542 59.835396,50.468708 
	C60.427486,50.699005 60.909275,52.668179 60.590721,53.546371 
	C58.636356,58.934101 56.563412,64.288101 54.266735,69.538185 
	C53.227062,71.914825 51.582340,74.026779 50.212109,76.258812 
	C58.102371,75.084801 62.878910,70.260796 67.243385,65.059227 
	C71.700829,59.746857 71.371803,51.646210 66.869232,46.266396 
	C61.649948,40.030243 54.523975,37.829659 48.341568,42.435791 
	C41.826740,47.289585 36.581364,53.847244 30.759344,59.712490 
	C30.759344,59.712490 30.714300,59.746563 30.240940,60.144196 
	C29.850300,60.859974 29.459658,61.575752 28.607870,62.569496 
	C28.113024,63.051971 27.618179,63.534447 26.964321,64.012108 
	C26.964321,64.012108 26.959280,64.171112 26.552931,64.269333 
M109.793343,138.819351 
	C114.572807,133.397263 119.352272,127.975174 124.129684,122.555397 
	C123.865891,122.314163 124.048561,122.400810 124.089233,122.531609 
	C124.332664,123.314545 124.575943,124.100143 124.759926,124.898537 
	C126.110100,130.757523 128.122635,132.474564 133.391174,129.902893 
	C137.832382,127.735062 141.472946,123.791389 145.198395,120.342644 
	C147.500916,118.211143 149.298950,115.534683 151.323471,113.102867 
	C151.850586,115.082199 151.036407,116.622505 151.317657,117.926575 
	C151.948853,120.853348 152.313782,124.858406 154.294312,126.200836 
	C156.499374,127.695450 160.465591,127.206390 163.493301,126.648323 
	C165.389633,126.298790 167.205338,124.448624 168.647034,122.891899 
	C173.264420,117.906013 177.690628,112.743080 182.268860,107.559914 
	C184.816330,107.944489 187.705215,108.380592 190.798950,108.847626 
	C188.261734,114.537720 185.650101,120.068764 183.320251,125.716064 
	C181.199387,130.856781 179.611526,136.140091 182.493805,141.586014 
	C184.891479,146.116302 188.720901,147.572357 192.704590,144.526382 
	C198.074310,140.420654 203.015167,135.714859 207.863785,130.983444 
	C210.272919,128.632538 212.065826,125.650139 214.137527,122.953430 
	C215.105240,124.706383 214.978745,126.118645 215.127106,127.501404 
	C215.774261,133.532700 219.166031,137.478867 224.583130,139.962662 
	C229.509781,142.221573 233.388947,140.229935 236.775055,136.940689 
	C239.507339,134.286575 241.937653,131.307693 244.377670,128.369705 
	C248.437210,123.481667 252.397217,118.510971 256.793854,113.088226 
	C256.793854,118.538742 256.426178,123.066666 256.922485,127.497818 
	C257.256104,130.476349 258.158722,133.843826 259.973022,136.099091 
	C262.781982,139.590805 268.093323,138.269669 268.878815,134.187363 
	C274.249847,106.274071 289.069916,83.057289 305.443146,60.653797 
	C308.864746,55.972004 313.047211,51.819820 317.121094,47.660629 
	C318.082336,46.679260 320.519867,45.861435 321.384796,46.400913 
	C322.408600,47.039459 322.937561,49.264030 322.830475,50.739418 
	C322.665009,53.019360 322.139557,55.424171 321.138123,57.467960 
	C314.597839,70.815117 306.224213,82.610001 292.645477,89.772888 
	C288.720947,91.843109 288.489563,93.544136 291.920502,96.300491 
	C294.808838,98.620918 297.799377,99.461601 301.623108,98.018814 
	C308.486847,95.428909 312.595734,98.050087 313.036835,105.458000 
	C313.222168,108.570824 312.480286,112.112267 311.045166,114.881073 
	C305.874207,124.857430 297.008820,131.159409 287.693268,136.837479 
	C277.283478,143.182526 266.066345,147.486359 253.802017,150.018677 
	C256.251190,151.495163 258.743958,152.627029 261.314941,152.847733 
	C280.495483,154.494156 296.268066,146.401474 310.607697,134.860962 
	C317.215027,129.543427 321.724548,122.571907 324.101868,114.292290 
	C327.699249,101.763496 323.019165,91.815720 310.611847,90.600754 
	C310.184448,90.558899 309.796021,90.119339 309.286530,89.800827 
	C317.166656,83.550201 326.805176,79.021141 328.999817,67.836678 
	C329.081390,67.420975 329.636749,67.088692 329.991089,66.737480 
	C336.059845,60.722576 337.315155,47.122795 332.435272,40.221931 
	C328.977875,35.332680 323.902893,34.401070 319.025421,38.003338 
	C316.761871,39.675091 314.678314,41.646427 312.744202,43.699596 
	C294.700256,62.854111 281.010895,84.717178 272.006805,109.479393 
	C271.567139,110.688530 270.925049,111.824059 270.377197,112.993858 
	C269.914917,112.816254 269.452637,112.638649 268.990356,112.461044 
	C270.729126,105.268433 272.395050,98.057266 274.221252,90.886925 
	C278.465790,74.221130 283.602142,57.946365 294.670837,44.248287 
	C296.877441,41.517525 296.608826,38.648411 293.862976,36.289501 
	C290.656372,33.534771 288.431610,35.728539 286.173218,37.892365 
	C274.775879,48.812428 269.639954,63.436752 265.604431,77.733994 
	C261.128845,93.590500 257.286316,109.138626 245.166916,121.146652 
	C245.054596,121.257912 245.046814,121.478424 244.931198,121.582039 
	C240.369141,125.670128 236.057907,130.101868 231.141342,133.708115 
	C227.879822,136.100372 225.764969,134.677902 225.979782,130.541031 
	C226.176453,126.752960 227.572189,123.010620 227.627609,119.236206 
	C227.687973,115.126381 230.138870,114.121452 233.097382,112.206520 
	C238.588394,108.652405 243.707657,104.273918 248.188599,99.495003 
	C251.305756,96.170570 252.605194,91.492462 249.267807,87.136314 
	C246.793106,83.906181 240.278793,82.547951 235.854736,84.495949 
	C233.630966,85.475113 231.306076,86.903236 229.831451,88.765427 
	C226.648987,92.784325 223.880005,97.147820 221.140533,101.495514 
	C218.409698,105.829521 216.171585,110.489075 213.267410,114.695168 
	C209.108459,120.718559 204.732880,126.619118 200.061264,132.249786 
	C197.930099,134.818481 194.870255,136.616684 192.231628,138.764359 
	C191.852448,138.365479 191.473251,137.966614 191.094070,137.567734 
	C191.334442,136.651627 191.476761,135.695648 191.830490,134.825623 
	C195.023407,126.972672 198.208954,119.116165 201.487717,111.298889 
	C203.757767,105.886673 202.512390,103.659691 196.638809,103.027016 
	C195.647278,102.920212 194.591721,103.121201 193.653915,102.861565 
	C191.669556,102.312195 189.743408,101.552574 187.793396,100.879181 
	C188.481186,99.086342 189.214355,97.309235 189.843002,95.495888 
	C190.386612,93.927864 190.811478,92.318680 191.288834,90.727684 
	C189.272491,90.323395 187.101227,89.235023 185.270340,89.649643 
	C180.712311,90.681885 177.845993,96.436295 178.960693,101.197166 
	C179.251312,102.438324 180.069046,104.300354 179.545944,104.872253 
	C174.477814,110.413170 169.175461,115.739822 163.939972,121.127640 
	C163.284607,120.742340 162.629227,120.357040 161.973862,119.971748 
	C163.826569,114.026466 165.861282,108.128876 167.438278,102.111336 
	C168.030670,99.850861 167.560318,97.311867 167.574478,94.899864 
	C164.961044,95.193443 162.006317,94.834633 159.833817,95.971115 
	C157.815750,97.026810 156.613739,99.663353 155.084503,101.628815 
	C150.589127,107.406578 146.239349,113.305290 141.543762,118.914894 
	C140.162613,120.564888 137.819443,121.409615 135.917145,122.623390 
	C135.489380,122.233253 135.061615,121.843117 134.633850,121.452980 
	C135.240341,119.298912 135.577164,117.020561 136.502243,115.013313 
	C139.688080,108.100510 143.229340,101.348267 146.289413,94.382942 
	C147.075256,92.594223 146.590790,90.247414 146.689896,88.156990 
	C143.900085,88.166122 140.772675,87.401169 138.425385,88.424927 
	C136.485291,89.271072 135.227951,92.104500 134.080688,94.275414 
	C128.352936,105.113739 123.244934,116.356796 113.405838,124.361320 
	C111.813744,125.656563 110.186852,126.909019 108.576050,128.181259 
	C108.091446,127.944435 107.606842,127.707619 107.122238,127.470802 
	C108.267578,121.793411 108.903076,115.948616 110.697342,110.484306 
	C112.606796,104.669182 115.621490,99.217941 118.138962,93.601250 
	C120.899208,87.442909 120.711937,83.626785 117.079163,81.456787 
	C112.092850,78.478264 108.732681,82.115547 105.948441,85.263451 
	C99.444084,92.617355 93.348633,100.332970 87.089432,107.903625 
	C86.150291,109.039536 85.221268,110.183800 84.287560,111.324196 
	C84.248253,107.766708 85.245705,104.855186 85.966820,101.876762 
	C87.813797,94.248230 91.587097,88.126877 97.384308,82.529327 
	C110.254059,70.102829 121.189354,56.049492 127.637444,39.057774 
	C130.583344,31.294889 133.563187,23.483143 132.389832,14.873211 
	C131.637863,9.355390 127.971725,6.620554 122.951309,8.874663 
	C119.289360,10.518834 115.426216,12.987635 113.130890,16.158733 
	C106.825378,24.870081 100.864716,33.898670 95.554283,43.248531 
	C84.628014,62.485943 77.146469,83.074448 73.542061,104.954765 
	C72.464684,111.494911 71.722977,118.128845 71.492012,124.743011 
	C71.433846,126.408714 73.698563,128.526306 75.410355,129.657822 
	C75.925949,129.998611 78.511772,127.971420 79.581734,126.589569 
	C88.724213,114.781967 97.727592,102.866730 106.817307,91.017998 
	C107.187157,90.535889 108.002174,90.395294 109.723564,89.546204 
	C108.010208,93.375664 106.728081,96.023560 105.626549,98.744568 
	C102.460838,106.564552 98.684525,114.223251 96.428757,122.302864 
	C93.902023,131.353043 100.139481,138.894302 109.793343,138.819351 
M469.164032,102.819206 
	C467.493988,114.855728 460.959167,123.845566 451.515930,131.267960 
	C450.906067,128.103012 450.665527,125.098816 451.388794,122.348022 
	C453.190338,115.496056 455.283630,108.709534 457.561829,101.999283 
	C458.575989,99.012070 459.126862,95.942299 456.082550,94.588326 
	C453.963257,93.645752 450.929199,94.226425 448.462769,94.804649 
	C447.057068,95.134201 445.970520,96.825111 444.672668,97.962227 
	C443.395813,95.413528 442.481659,92.906845 441.003479,90.794960 
	C438.679077,87.474182 435.182068,85.521873 431.571472,88.103561 
	C427.475067,91.032616 423.387543,94.432411 420.480621,98.478546 
	C412.553314,109.512550 405.396484,121.097618 397.591797,132.224060 
	C395.736328,134.869232 392.539734,136.573669 389.959991,138.710815 
	C389.595062,138.414459 389.230133,138.118088 388.865204,137.821732 
	C389.083862,136.590408 389.105927,135.281982 389.553772,134.140564 
	C392.042358,127.797592 394.466949,121.420952 397.227936,115.195297 
	C402.028229,104.371208 401.883331,104.009918 389.864136,102.904472 
	C384.881104,102.446159 383.961273,100.685417 386.566040,96.581474 
	C386.833008,96.160881 387.256897,95.797501 387.392029,95.343315 
	C387.862305,93.762688 388.237488,92.153778 388.648834,90.555618 
	C386.771179,90.167404 384.063080,88.808601 383.170807,89.572037 
	C380.438507,91.909798 376.378693,95.171051 376.523621,97.875465 
	C376.815063,103.314102 373.922638,106.369690 371.249023,109.958000 
	C368.068695,114.226410 365.163513,118.755287 361.568542,122.643791 
	C357.981537,126.523689 353.806671,129.901688 349.631622,133.170319 
	C348.423431,134.116196 345.737457,134.736191 344.791351,134.047043 
	C343.689209,133.244186 343.255219,130.794220 343.410767,129.141769 
	C343.768188,125.344528 344.345306,121.500839 345.464111,117.870407 
	C346.033325,116.023315 347.753967,114.344017 349.321442,113.025543 
	C354.726440,108.479019 360.681824,104.514404 365.655029,99.553665 
	C368.725647,96.490738 370.088348,91.780449 367.048004,87.628677 
	C364.044922,83.527847 359.419128,82.974503 354.838409,84.099075 
	C352.522186,84.667717 349.997162,85.919380 348.403290,87.638153 
	C340.465668,96.197952 334.207245,105.592590 335.442566,118.130791 
	C335.522858,118.945618 335.007172,119.892616 334.577240,120.672585 
	C331.307617,126.604195 332.609650,133.120361 337.988190,137.492111 
	C343.674225,142.113785 348.507721,142.165009 354.061157,137.158630 
	C356.881683,134.615921 359.290771,131.584274 361.695404,128.619232 
	C367.457428,121.514374 373.106781,114.318146 378.769287,107.199371 
	C381.901428,107.818443 384.916687,108.414406 388.150421,109.053558 
	C385.666718,114.723564 383.236145,120.153236 380.906006,125.625679 
	C378.638580,130.950928 377.119293,136.377609 380.168854,141.928391 
	C382.492096,146.157181 386.216278,147.427460 390.074188,144.574020 
	C395.107391,140.851334 399.847595,136.662292 404.312103,132.265945 
	C407.194641,129.427429 409.357178,125.857689 412.457825,121.812744 
	C412.699341,123.737976 412.567017,124.777977 412.970978,125.529831 
	C414.477112,128.332886 415.529999,132.186783 417.929352,133.504837 
	C421.165955,135.282837 425.081177,133.791473 427.636322,130.538452 
	C431.018860,126.232048 434.398743,121.922607 437.707642,117.559769 
	C438.987549,115.872208 440.070190,114.035027 441.701538,111.573761 
	C441.061676,118.018608 440.083710,123.273666 440.154114,128.514633 
	C440.218292,133.292740 441.998962,138.010849 446.992065,139.762802 
	C451.884705,141.479477 455.212341,138.072601 457.983490,134.635544 
	C461.390503,130.409805 464.511688,125.953621 467.961548,121.321632 
	C468.742096,122.157433 469.436218,122.833183 470.054077,123.572655 
	C476.086365,130.792404 480.837555,130.799454 486.530701,123.365059 
	C490.173157,118.608582 493.656860,113.721802 497.007355,108.755554 
	C498.067505,107.184135 498.467010,105.167030 499.168884,103.353897 
	C498.583923,102.972511 497.998993,102.591125 497.414032,102.209740 
	C495.512451,104.230339 493.583557,106.226105 491.715149,108.276924 
	C488.193420,112.142471 484.864014,116.202690 481.112640,119.828087 
	C479.930878,120.970123 477.656616,120.981712 475.882385,121.510681 
	C475.784637,119.780067 475.123535,117.832840 475.690674,116.357887 
	C477.701782,111.127701 479.929108,105.954590 482.485229,100.970505 
	C483.860718,98.288551 483.710876,96.832726 480.918457,95.506561 
	C475.207031,92.794144 472.248718,94.419395 469.164032,102.819206 
M490.483459,67.734642 
	C485.763794,64.819855 481.009094,65.695435 481.621826,69.402214 
	C482.561493,75.086998 480.268677,79.134842 477.199402,83.340752 
	C476.448853,84.369202 476.780396,86.386299 477.052673,87.868324 
	C477.168396,88.498100 478.862854,89.510040 479.074890,89.347931 
	C481.762939,87.292488 484.646088,85.334221 486.786926,82.772415 
	C488.418610,80.819847 488.597626,77.635330 490.261597,75.732132 
	C492.513031,73.157028 493.032623,71.001709 490.483459,67.734642 
z"/>
<path fill="#F45757" opacity="1.000000" stroke="none" 
	d="
M109.406387,138.901001 
	C100.139481,138.894302 93.902023,131.353043 96.428757,122.302864 
	C98.684525,114.223251 102.460838,106.564552 105.626549,98.744568 
	C106.728081,96.023560 108.010208,93.375664 109.723564,89.546204 
	C108.002174,90.395294 107.187157,90.535889 106.817307,91.017998 
	C97.727592,102.866730 88.724213,114.781967 79.581734,126.589569 
	C78.511772,127.971420 75.925949,129.998611 75.410355,129.657822 
	C73.698563,128.526306 71.433846,126.408714 71.492012,124.743011 
	C71.722977,118.128845 72.464684,111.494911 73.542061,104.954765 
	C77.146469,83.074448 84.628014,62.485943 95.554283,43.248531 
	C100.864716,33.898670 106.825378,24.870081 113.130890,16.158733 
	C115.426216,12.987635 119.289360,10.518834 122.951309,8.874663 
	C127.971725,6.620554 131.637863,9.355390 132.389832,14.873211 
	C133.563187,23.483143 130.583344,31.294889 127.637444,39.057774 
	C121.189354,56.049492 110.254059,70.102829 97.384308,82.529327 
	C91.587097,88.126877 87.813797,94.248230 85.966820,101.876762 
	C85.245705,104.855186 84.248253,107.766708 84.287560,111.324196 
	C85.221268,110.183800 86.150291,109.039536 87.089432,107.903625 
	C93.348633,100.332970 99.444084,92.617355 105.948441,85.263451 
	C108.732681,82.115547 112.092850,78.478264 117.079163,81.456787 
	C120.711937,83.626785 120.899208,87.442909 118.138962,93.601250 
	C115.621490,99.217941 112.606796,104.669182 110.697342,110.484306 
	C108.903076,115.948616 108.267578,121.793411 107.122238,127.470802 
	C107.606842,127.707619 108.091446,127.944435 108.576050,128.181259 
	C110.186852,126.909019 111.813744,125.656563 113.405838,124.361320 
	C123.244934,116.356796 128.352936,105.113739 134.080688,94.275414 
	C135.227951,92.104500 136.485291,89.271072 138.425385,88.424927 
	C140.772675,87.401169 143.900085,88.166122 146.689896,88.156990 
	C146.590790,90.247414 147.075256,92.594223 146.289413,94.382942 
	C143.229340,101.348267 139.688080,108.100510 136.502243,115.013313 
	C135.577164,117.020561 135.240341,119.298912 134.633850,121.452980 
	C135.061615,121.843117 135.489380,122.233253 135.917145,122.623390 
	C137.819443,121.409615 140.162613,120.564888 141.543762,118.914894 
	C146.239349,113.305290 150.589127,107.406578 155.084503,101.628815 
	C156.613739,99.663353 157.815750,97.026810 159.833817,95.971115 
	C162.006317,94.834633 164.961044,95.193443 167.574478,94.899857 
	C167.560318,97.311867 168.030670,99.850861 167.438278,102.111336 
	C165.861282,108.128876 163.826569,114.026466 161.973862,119.971748 
	C162.629227,120.357040 163.284607,120.742340 163.939972,121.127640 
	C169.175461,115.739822 174.477814,110.413170 179.545944,104.872253 
	C180.069046,104.300354 179.251312,102.438324 178.960693,101.197166 
	C177.845993,96.436295 180.712311,90.681885 185.270340,89.649643 
	C187.101227,89.235023 189.272491,90.323395 191.288834,90.727684 
	C190.811478,92.318680 190.386612,93.927864 189.843002,95.495888 
	C189.214355,97.309235 188.481186,99.086342 187.793396,100.879181 
	C189.743408,101.552574 191.669556,102.312195 193.653915,102.861565 
	C194.591721,103.121201 195.647278,102.920212 196.638809,103.027016 
	C202.512390,103.659691 203.757767,105.886673 201.487717,111.298889 
	C198.208954,119.116165 195.023407,126.972672 191.830490,134.825623 
	C191.476761,135.695648 191.334442,136.651627 191.094070,137.567734 
	C191.473251,137.966614 191.852448,138.365479 192.231628,138.764359 
	C194.870255,136.616684 197.930099,134.818481 200.061264,132.249786 
	C204.732880,126.619118 209.108459,120.718559 213.267410,114.695168 
	C216.171585,110.489075 218.409698,105.829521 221.140533,101.495514 
	C223.880005,97.147820 226.648987,92.784325 229.831451,88.765427 
	C231.306076,86.903236 233.630966,85.475113 235.854736,84.495949 
	C240.278793,82.547951 246.793106,83.906181 249.267807,87.136314 
	C252.605194,91.492462 251.305756,96.170570 248.188599,99.495003 
	C243.707657,104.273918 238.588394,108.652405 233.097382,112.206520 
	C230.138870,114.121452 227.687973,115.126381 227.627609,119.236206 
	C227.572189,123.010620 226.176453,126.752960 225.979782,130.541031 
	C225.764969,134.677902 227.879822,136.100372 231.141342,133.708115 
	C236.057907,130.101868 240.369141,125.670128 244.931198,121.582039 
	C245.046814,121.478424 245.054596,121.257912 245.166916,121.146652 
	C257.286316,109.138626 261.128845,93.590500 265.604431,77.733994 
	C269.639954,63.436752 274.775879,48.812428 286.173218,37.892365 
	C288.431610,35.728539 290.656372,33.534771 293.862976,36.289501 
	C296.608826,38.648411 296.877441,41.517525 294.670837,44.248287 
	C283.602142,57.946365 278.465790,74.221130 274.221252,90.886925 
	C272.395050,98.057266 270.729126,105.268433 268.990356,112.461044 
	C269.452637,112.638649 269.914917,112.816254 270.377197,112.993858 
	C270.925049,111.824059 271.567139,110.688530 272.006805,109.479393 
	C281.010895,84.717178 294.700256,62.854111 312.744202,43.699596 
	C314.678314,41.646427 316.761871,39.675091 319.025421,38.003338 
	C323.902893,34.401070 328.977875,35.332680 332.435272,40.221931 
	C337.315155,47.122795 336.059845,60.722576 329.991089,66.737480 
	C329.636749,67.088692 329.081390,67.420975 328.999817,67.836678 
	C326.805176,79.021141 317.166656,83.550201 309.286530,89.800827 
	C309.796021,90.119339 310.184448,90.558899 310.611847,90.600754 
	C323.019165,91.815720 327.699249,101.763496 324.101868,114.292290 
	C321.724548,122.571907 317.215027,129.543427 310.607697,134.860962 
	C296.268066,146.401474 280.495483,154.494156 261.314941,152.847733 
	C258.743958,152.627029 256.251190,151.495163 253.802017,150.018677 
	C266.066345,147.486359 277.283478,143.182526 287.693268,136.837479 
	C297.008820,131.159409 305.874207,124.857430 311.045166,114.881073 
	C312.480286,112.112267 313.222168,108.570824 313.036835,105.458000 
	C312.595734,98.050087 308.486847,95.428909 301.623108,98.018814 
	C297.799377,99.461601 294.808838,98.620918 291.920502,96.300491 
	C288.489563,93.544136 288.720947,91.843109 292.645477,89.772888 
	C306.224213,82.610001 314.597839,70.815117 321.138123,57.467960 
	C322.139557,55.424171 322.665009,53.019360 322.830475,50.739418 
	C322.937561,49.264030 322.408600,47.039459 321.384796,46.400913 
	C320.519867,45.861435 318.082336,46.679260 317.121094,47.660629 
	C313.047211,51.819820 308.864746,55.972004 305.443146,60.653797 
	C289.069916,83.057289 274.249847,106.274071 268.878815,134.187363 
	C268.093323,138.269669 262.781982,139.590805 259.973022,136.099091 
	C258.158722,133.843826 257.256104,130.476349 256.922485,127.497818 
	C256.426178,123.066666 256.793854,118.538742 256.793854,113.088226 
	C252.397217,118.510971 248.437210,123.481667 244.377670,128.369705 
	C241.937653,131.307693 239.507339,134.286575 236.775055,136.940689 
	C233.388947,140.229935 229.509781,142.221573 224.583130,139.962662 
	C219.166031,137.478867 215.774261,133.532700 215.127106,127.501404 
	C214.978745,126.118645 215.105240,124.706383 214.137527,122.953430 
	C212.065826,125.650139 210.272919,128.632538 207.863785,130.983444 
	C203.015167,135.714859 198.074310,140.420654 192.704590,144.526382 
	C188.720901,147.572357 184.891479,146.116302 182.493805,141.586014 
	C179.611526,136.140091 181.199387,130.856781 183.320251,125.716064 
	C185.650101,120.068764 188.261734,114.537720 190.798950,108.847626 
	C187.705215,108.380592 184.816330,107.944489 182.268860,107.559914 
	C177.690628,112.743080 173.264420,117.906013 168.647034,122.891899 
	C167.205338,124.448624 165.389633,126.298790 163.493301,126.648323 
	C160.465591,127.206390 156.499374,127.695450 154.294312,126.200836 
	C152.313782,124.858406 151.948853,120.853348 151.317657,117.926575 
	C151.036407,116.622505 151.850586,115.082199 151.323471,113.102867 
	C149.298950,115.534683 147.500916,118.211143 145.198395,120.342644 
	C141.472946,123.791389 137.832382,127.735062 133.391174,129.902893 
	C128.122635,132.474564 126.110100,130.757523 124.759926,124.898537 
	C124.575943,124.100143 124.332664,123.314545 124.089233,122.531609 
	C124.048561,122.400810 123.865891,122.314163 124.129684,122.555397 
	C119.352272,127.975174 114.572807,133.397263 109.406387,138.901001 
M102.554260,53.197411 
	C102.381096,53.337914 102.210625,53.481594 101.522903,53.758850 
	C98.669945,60.197643 95.700676,66.590378 93.109550,73.132866 
	C92.781509,73.961151 94.436295,75.574715 95.817261,76.726341 
	C100.672333,70.456230 105.935509,64.455482 110.291382,57.855892 
	C117.709373,46.616875 124.350349,34.894093 127.238441,21.510384 
	C127.628258,19.703960 127.292091,17.740875 127.292091,15.341599 
	C125.741982,16.029165 125.132790,16.101559 124.890076,16.438189 
	C122.863022,19.249552 120.903389,22.109529 118.588600,24.534275 
	C118.021088,24.109417 117.453575,23.684559 116.886063,23.259705 
	C116.602043,24.443340 116.318024,25.626978 115.316536,26.944836 
	C112.090195,32.870182 108.850090,38.788189 105.674675,44.740704 
	C105.500313,45.067562 105.864273,45.681599 105.697906,46.600029 
	C105.542168,47.060173 105.386436,47.520317 104.828003,48.634270 
	C104.161148,50.089542 103.494301,51.544811 102.554260,53.197411 
M233.565689,101.057518 
	C232.653442,103.228928 231.741196,105.400337 230.466278,108.434990 
	C242.327209,101.850800 246.365494,94.823502 242.588074,87.478691 
	C238.140396,90.894508 235.954910,95.597969 233.565689,101.057518 
z"/>
<path fill="#F35757" opacity="1.000000" stroke="none" 
	d="
M469.289490,102.446503 
	C472.248718,94.419395 475.207031,92.794144 480.918457,95.506561 
	C483.710876,96.832726 483.860718,98.288551 482.485229,100.970505 
	C479.929108,105.954590 477.701782,111.127701 475.690674,116.357887 
	C475.123535,117.832840 475.784637,119.780067 475.882385,121.510681 
	C477.656616,120.981712 479.930878,120.970123 481.112640,119.828087 
	C484.864014,116.202690 488.193420,112.142471 491.715149,108.276924 
	C493.583557,106.226105 495.512451,104.230339 497.414032,102.209740 
	C497.998993,102.591125 498.583923,102.972511 499.168884,103.353897 
	C498.467010,105.167030 498.067505,107.184135 497.007355,108.755554 
	C493.656860,113.721802 490.173157,118.608582 486.530701,123.365059 
	C480.837555,130.799454 476.086365,130.792404 470.054077,123.572655 
	C469.436218,122.833183 468.742096,122.157433 467.961548,121.321632 
	C464.511688,125.953621 461.390503,130.409805 457.983490,134.635544 
	C455.212341,138.072601 451.884705,141.479477 446.992065,139.762802 
	C441.998962,138.010849 440.218292,133.292740 440.154114,128.514633 
	C440.083710,123.273666 441.061676,118.018608 441.701538,111.573761 
	C440.070190,114.035027 438.987549,115.872208 437.707642,117.559769 
	C434.398743,121.922607 431.018860,126.232048 427.636322,130.538452 
	C425.081177,133.791473 421.165955,135.282837 417.929352,133.504837 
	C415.529999,132.186783 414.477112,128.332886 412.970978,125.529831 
	C412.567017,124.777977 412.699341,123.737976 412.457825,121.812744 
	C409.357178,125.857689 407.194641,129.427429 404.312103,132.265945 
	C399.847595,136.662292 395.107391,140.851334 390.074188,144.574020 
	C386.216278,147.427460 382.492096,146.157181 380.168854,141.928391 
	C377.119293,136.377609 378.638580,130.950928 380.906006,125.625679 
	C383.236145,120.153236 385.666718,114.723564 388.150421,109.053558 
	C384.916687,108.414406 381.901428,107.818443 378.769287,107.199371 
	C373.106781,114.318146 367.457428,121.514374 361.695404,128.619232 
	C359.290771,131.584274 356.881683,134.615921 354.061157,137.158630 
	C348.507721,142.165009 343.674225,142.113785 337.988190,137.492111 
	C332.609650,133.120361 331.307617,126.604195 334.577240,120.672585 
	C335.007172,119.892616 335.522858,118.945618 335.442566,118.130791 
	C334.207245,105.592590 340.465668,96.197952 348.403290,87.638153 
	C349.997162,85.919380 352.522186,84.667717 354.838409,84.099075 
	C359.419128,82.974503 364.044922,83.527847 367.048004,87.628677 
	C370.088348,91.780449 368.725647,96.490738 365.655029,99.553665 
	C360.681824,104.514404 354.726440,108.479019 349.321442,113.025543 
	C347.753967,114.344017 346.033325,116.023315 345.464111,117.870407 
	C344.345306,121.500839 343.768188,125.344528 343.410767,129.141769 
	C343.255219,130.794220 343.689209,133.244186 344.791351,134.047043 
	C345.737457,134.736191 348.423431,134.116196 349.631622,133.170319 
	C353.806671,129.901688 357.981537,126.523689 361.568542,122.643791 
	C365.163513,118.755287 368.068695,114.226410 371.249023,109.958000 
	C373.922638,106.369690 376.815063,103.314102 376.523621,97.875465 
	C376.378693,95.171051 380.438507,91.909798 383.170807,89.572037 
	C384.063080,88.808601 386.771179,90.167404 388.648834,90.555618 
	C388.237488,92.153778 387.862305,93.762688 387.392029,95.343315 
	C387.256897,95.797501 386.833008,96.160881 386.566040,96.581474 
	C383.961273,100.685417 384.881104,102.446159 389.864136,102.904472 
	C401.883331,104.009918 402.028229,104.371208 397.227936,115.195297 
	C394.466949,121.420952 392.042358,127.797592 389.553772,134.140564 
	C389.105927,135.281982 389.083862,136.590408 388.865204,137.821732 
	C389.230133,138.118088 389.595062,138.414459 389.959991,138.710815 
	C392.539734,136.573669 395.736328,134.869232 397.591797,132.224060 
	C405.396484,121.097618 412.553314,109.512550 420.480621,98.478546 
	C423.387543,94.432411 427.475067,91.032616 431.571472,88.103561 
	C435.182068,85.521873 438.679077,87.474182 441.003479,90.794960 
	C442.481659,92.906845 443.395813,95.413528 444.672668,97.962227 
	C445.970520,96.825111 447.057068,95.134201 448.462769,94.804649 
	C450.929199,94.226425 453.963257,93.645752 456.082550,94.588326 
	C459.126862,95.942299 458.575989,99.012070 457.561829,101.999283 
	C455.283630,108.709534 453.190338,115.496056 451.388794,122.348022 
	C450.665527,125.098816 450.906067,128.103012 451.515930,131.267960 
	C460.959167,123.845566 467.493988,114.855728 469.289490,102.446503 
M440.237305,104.666466 
	C439.899292,102.250717 439.728699,99.794960 439.164398,97.433281 
	C438.788086,95.858315 437.850830,94.417397 437.164612,92.916489 
	C435.594666,93.978775 433.228180,94.694359 432.589417,96.161926 
	C429.419708,103.444443 426.602203,110.887856 423.899750,118.361053 
	C423.173096,120.370552 423.284546,122.683105 423.011261,124.856544 
	C423.643433,125.181671 424.275604,125.506798 424.907776,125.831924 
	C429.919037,119.001114 434.930298,112.170303 440.237305,104.666466 
M361.868866,92.346436 
	C361.562408,90.857300 361.255951,89.368164 360.793671,87.121994 
	C353.281525,92.633781 351.901031,100.682037 348.550446,107.619835 
	C354.621429,104.300285 360.325287,100.700813 361.868866,92.346436 
z"/>
<path fill="#F65757" opacity="1.000000" stroke="none" 
	d="
M29.069016,62.291527 
	C29.459658,61.575752 29.850300,60.859974 30.549294,60.241539 
	C31.335361,60.894012 31.813076,61.449142 32.290791,62.004269 
	C32.492599,61.771343 32.694408,61.538422 32.896221,61.305500 
	C32.191265,60.757156 31.486311,60.208817 30.781355,59.660473 
	C36.581364,53.847244 41.826740,47.289585 48.341568,42.435791 
	C54.523975,37.829659 61.649948,40.030243 66.869232,46.266396 
	C71.371803,51.646210 71.700829,59.746857 67.243385,65.059227 
	C62.878910,70.260796 58.102371,75.084801 50.212109,76.258812 
	C51.582340,74.026779 53.227062,71.914825 54.266735,69.538185 
	C56.563412,64.288101 58.636356,58.934101 60.590721,53.546371 
	C60.909275,52.668179 60.427486,50.699005 59.835396,50.468708 
	C58.809155,50.069542 57.134415,50.241245 56.217899,50.875816 
	C54.051895,52.375492 51.991283,54.121593 50.204403,56.059711 
	C36.240101,71.205902 26.596788,88.953117 19.189169,108.023125 
	C18.888887,108.796165 18.463472,109.632828 18.518185,110.410156 
	C18.672546,112.603256 18.369637,116.074127 19.492826,116.662315 
	C21.189360,117.550758 24.684988,117.267311 26.113300,116.006325 
	C31.818213,110.969635 37.416439,105.696991 42.311840,99.886292 
	C49.152145,91.767014 55.179878,82.965675 61.941914,74.775383 
	C63.021275,73.468048 66.585426,72.854179 68.189758,73.619652 
	C71.578964,75.236755 75.106567,77.784836 73.199860,82.540901 
	C71.846169,85.917526 69.911911,89.061401 67.859390,92.471313 
	C63.757210,94.079369 63.123043,96.347244 65.064651,101.278267 
	C65.064651,101.278267 65.071365,101.645332 64.789299,102.025742 
	C64.333717,102.948730 64.160210,103.491302 63.986694,104.033882 
	C55.001610,126.173653 47.462769,148.947998 35.310692,169.698273 
	C33.635300,172.559113 31.718924,175.313522 29.640108,177.896713 
	C23.933640,184.987701 18.580162,186.103149 10.902531,182.038956 
	C4.027529,178.399643 0.877703,171.585571 3.653232,163.890488 
	C5.359383,159.160217 8.102804,154.524567 11.385455,150.711624 
	C15.700802,145.699158 20.971453,141.500854 25.918596,137.049423 
	C26.672827,136.370773 27.897112,136.214523 29.666071,136.559906 
	C28.728121,137.929901 27.712471,139.253662 26.865107,140.677567 
	C22.123112,148.645935 17.400267,156.625961 12.734235,164.638916 
	C12.161821,165.621902 11.561317,166.870697 11.678467,167.917435 
	C11.969853,170.520981 12.668172,173.078949 13.203089,175.655228 
	C15.626472,174.680527 19.007109,174.395126 20.296814,172.604080 
	C24.450397,166.835922 28.614906,160.842255 31.357279,154.337723 
	C37.935272,138.735641 43.712242,122.795601 49.780766,106.979774 
	C50.059875,106.252365 50.030197,105.406479 49.418758,104.195244 
	C46.999668,107.344315 44.694355,110.589645 42.132317,113.617760 
	C39.023930,117.291595 36.028240,121.167885 32.396492,124.268715 
	C25.570179,130.097092 18.525789,129.047607 12.954060,121.949562 
	C7.531984,115.042152 7.268396,107.272133 9.299204,99.194267 
	C9.862174,96.954964 10.879683,94.829926 12.105138,92.532898 
	C13.387548,92.246628 14.253473,92.079933 15.119398,91.913231 
	C14.699165,90.570366 14.278933,89.227493 13.858699,87.884628 
	C13.858699,87.884628 13.888172,87.407562 14.181480,86.990479 
	C14.652637,86.068481 14.830486,85.563576 15.008336,85.058662 
	C18.575085,78.526749 22.141830,71.994835 26.115253,65.117371 
	C26.712126,64.603905 26.857908,64.403671 26.959280,64.171112 
	C26.959280,64.171112 26.964321,64.012108 27.354481,64.020737 
	C28.159992,64.022896 28.575346,64.016418 29.013794,64.150215 
	C29.176216,64.397392 29.315542,64.504288 29.454868,64.611191 
	C29.306084,64.405769 29.157297,64.200348 29.017477,63.710701 
	C29.040634,63.048153 29.054823,62.669842 29.069016,62.291527 
M62.385017,103.198456 
	C61.775875,103.709129 61.166729,104.219803 60.557583,104.730484 
	C60.871868,104.980225 61.186157,105.229973 61.500443,105.479721 
	C61.816761,104.870926 62.133080,104.262131 62.385017,103.198456 
M22.278505,76.921143 
	C22.097307,76.952652 21.916111,76.984161 21.734915,77.015678 
	C21.913040,77.059433 22.091166,77.103195 22.278505,76.921143 
M27.520021,68.220505 
	C27.573059,68.259666 27.626099,68.298820 27.520021,68.220505 
M18.500845,84.465179 
	C18.500845,84.465179 18.519306,84.512756 18.500845,84.465179 
M17.466326,86.496834 
	C17.466326,86.496834 17.515541,86.476204 17.466326,86.496834 
M19.531200,82.498894 
	C19.531200,82.498894 19.484701,82.517181 19.531200,82.498894 
z"/>
<path fill="#EF5858" opacity="1.000000" stroke="none" 
	d="
M490.723816,68.015121 
	C493.032623,71.001709 492.513031,73.157028 490.261597,75.732132 
	C488.597626,77.635330 488.418610,80.819847 486.786926,82.772415 
	C484.646088,85.334221 481.762939,87.292488 479.074890,89.347931 
	C478.862854,89.510040 477.168396,88.498100 477.052673,87.868324 
	C476.780396,86.386299 476.448853,84.369202 477.199402,83.340752 
	C480.268677,79.134842 482.561493,75.086998 481.621826,69.402214 
	C481.009094,65.695435 485.763794,64.819855 490.723816,68.015121 
z"/>
<path fill="#D55A5A" opacity="1.000000" stroke="none" 
	d="
M65.330170,101.017578 
	C63.123043,96.347244 63.757210,94.079369 67.674377,92.765213 
	C67.109734,95.516930 66.352715,98.136909 65.330170,101.017578 
z"/>
<path fill="#E85757" opacity="1.000000" stroke="none" 
	d="
M13.607304,88.102936 
	C14.278933,89.227493 14.699165,90.570366 15.119398,91.913231 
	C14.253473,92.079933 13.387548,92.246628 12.310617,92.234734 
	C12.518376,90.811172 12.937143,89.566216 13.607304,88.102936 
z"/>
<path fill="#E85757" opacity="1.000000" stroke="none" 
	d="
M28.838442,62.430511 
	C29.054823,62.669842 29.040634,63.048153 29.012959,63.713509 
	C28.999472,64.000549 28.990700,64.009941 28.990700,64.009941 
	C28.575346,64.016418 28.159992,64.022896 27.433987,64.023148 
	C27.618179,63.534447 28.113024,63.051971 28.838442,62.430511 
z"/>
<path fill="#E85757" opacity="1.000000" stroke="none" 
	d="
M14.800249,85.245590 
	C14.830486,85.563576 14.652637,86.068481 14.305194,86.786003 
	C14.287786,86.476578 14.439975,85.954552 14.800249,85.245590 
z"/>
<path fill="#D55A5A" opacity="1.000000" stroke="none" 
	d="
M64.204185,103.831345 
	C64.160210,103.491302 64.333717,102.948730 64.693069,102.182068 
	C64.726494,102.514915 64.574089,103.071861 64.204185,103.831345 
z"/>
<path fill="#E85757" opacity="1.000000" stroke="none" 
	d="
M26.756105,64.220222 
	C26.857908,64.403671 26.712126,64.603905 26.370480,64.883804 
	C26.174055,64.681679 26.285355,64.439522 26.756105,64.220222 
z"/>
<path fill="#070606" opacity="1.000000" stroke="none" 
	d="
M118.923416,24.954842 
	C120.903389,22.109529 122.863022,19.249552 124.890076,16.438189 
	C125.132790,16.101559 125.741982,16.029165 127.292091,15.341599 
	C127.292091,17.740875 127.628258,19.703960 127.238441,21.510384 
	C124.350349,34.894093 117.709373,46.616875 110.291382,57.855892 
	C105.935509,64.455482 100.672333,70.456230 95.545273,76.420120 
	C97.904579,68.730034 100.535881,61.346161 103.458199,53.840485 
	C105.144249,52.038609 107.995689,50.734554 105.230698,47.980457 
	C105.386436,47.520317 105.542168,47.060173 106.175659,46.251541 
	C109.703674,40.884407 112.753937,35.865765 115.966873,30.556822 
	C117.060844,28.495962 117.992126,26.725401 118.923416,24.954842 
z"/>
<path fill="#0A0808" opacity="1.000000" stroke="none" 
	d="
M233.716553,100.715454 
	C235.954910,95.597969 238.140396,90.894508 242.588074,87.478691 
	C246.365494,94.823502 242.327209,101.850800 230.466278,108.434990 
	C231.741196,105.400337 232.653442,103.228928 233.716553,100.715454 
z"/>
<path fill="#C35757" opacity="1.000000" stroke="none" 
	d="
M103.167183,53.962296 
	C100.535881,61.346161 97.904579,68.730034 95.222855,76.469177 
	C94.436295,75.574715 92.781509,73.961151 93.109550,73.132866 
	C95.700676,66.590378 98.669945,60.197643 101.946930,53.781677 
	C102.370949,53.804501 102.704338,53.969616 102.819748,53.949032 
	C102.935165,53.928448 103.167183,53.962296 103.167183,53.962296 
z"/>
<path fill="#9C4D4D" opacity="1.000000" stroke="none" 
	d="
M115.804199,30.847122 
	C112.753937,35.865765 109.703674,40.884407 106.315536,46.032505 
	C105.864273,45.681599 105.500313,45.067562 105.674675,44.740704 
	C108.850090,38.788189 112.090195,32.870182 115.637695,27.190460 
	C115.907295,28.573097 115.855743,29.710110 115.804199,30.847122 
z"/>
<path fill="#E55555" opacity="1.000000" stroke="none" 
	d="
M115.966873,30.556824 
	C115.855743,29.710110 115.907295,28.573097 115.996429,27.123350 
	C116.318024,25.626978 116.602043,24.443340 116.886063,23.259703 
	C117.453575,23.684559 118.021088,24.109417 118.756004,24.744556 
	C117.992126,26.725401 117.060844,28.495962 115.966873,30.556824 
z"/>
<path fill="#0E0D0D" opacity="1.000000" stroke="none" 
	d="
M105.029350,48.307365 
	C107.995689,50.734554 105.144249,52.038609 103.458199,53.840485 
	C103.167183,53.962296 102.935165,53.928448 102.926369,53.716839 
	C102.887527,53.336845 102.857483,53.168465 102.827446,53.000084 
	C103.494301,51.544811 104.161148,50.089542 105.029350,48.307365 
z"/>
<path fill="#E55555" opacity="1.000000" stroke="none" 
	d="
M102.690857,53.098747 
	C102.857483,53.168465 102.887527,53.336845 102.810959,53.737423 
	C102.704338,53.969616 102.370949,53.804501 102.206894,53.716476 
	C102.210625,53.481594 102.381096,53.337914 102.690857,53.098747 
z"/>
<path fill="#080606" opacity="1.000000" stroke="none" 
	d="
M440.089417,105.002975 
	C434.930298,112.170303 429.919037,119.001114 424.907776,125.831924 
	C424.275604,125.506798 423.643433,125.181671 423.011261,124.856544 
	C423.284546,122.683105 423.173096,120.370552 423.899750,118.361053 
	C426.602203,110.887856 429.419708,103.444443 432.589417,96.161926 
	C433.228180,94.694359 435.594666,93.978775 437.164612,92.916489 
	C437.850830,94.417397 438.788086,95.858315 439.164398,97.433281 
	C439.728699,99.794960 439.899292,102.250717 440.089417,105.002975 
z"/>
<path fill="#0A0808" opacity="1.000000" stroke="none" 
	d="
M361.795685,92.733368 
	C360.325287,100.700813 354.621429,104.300285 348.550446,107.619835 
	C351.901031,100.682037 353.281525,92.633781 360.793671,87.121994 
	C361.255951,89.368164 361.562408,90.857300 361.795685,92.733368 
z"/>
<path fill="#E85757" opacity="1.000000" stroke="none" 
	d="
M30.770350,59.686481 
	C31.486311,60.208817 32.191265,60.757156 32.896221,61.305500 
	C32.694408,61.538422 32.492599,61.771343 32.290791,62.004269 
	C31.813076,61.449142 31.335361,60.894012 30.785975,60.042725 
	C30.714300,59.746563 30.759344,59.712490 30.770350,59.686481 
z"/>
<path fill="#D55A5A" opacity="1.000000" stroke="none" 
	d="
M62.417206,103.425896 
	C62.133080,104.262131 61.816761,104.870926 61.500443,105.479721 
	C61.186157,105.229973 60.871868,104.980225 60.557583,104.730484 
	C61.166729,104.219803 61.775875,103.709129 62.417206,103.425896 
z"/>
<path fill="#E85757" opacity="1.000000" stroke="none" 
	d="
M22.273899,77.034042 
	C22.091166,77.103195 21.913040,77.059433 21.734915,77.015678 
	C21.916111,76.984161 22.097307,76.952652 22.273899,77.034042 
z"/>
<path fill="#E85757" opacity="1.000000" stroke="none" 
	d="
M27.599579,68.279243 
	C27.626099,68.298820 27.573059,68.259666 27.599579,68.279243 
z"/>
<path fill="#E85757" opacity="1.000000" stroke="none" 
	d="
M29.003990,63.997742 
	C29.157297,64.200348 29.306084,64.405769 29.454868,64.611191 
	C29.315542,64.504288 29.176216,64.397392 29.013794,64.150215 
	C28.990700,64.009941 28.999472,64.000549 29.003990,63.997742 
z"/>
<path fill="#E85757" opacity="1.000000" stroke="none" 
	d="
M18.510075,84.488968 
	C18.519306,84.512756 18.500845,84.465179 18.510075,84.488968 
z"/>
<path fill="#E85757" opacity="1.000000" stroke="none" 
	d="
M17.490932,86.486519 
	C17.515541,86.476204 17.466326,86.496834 17.490932,86.486519 
z"/>
<path fill="#E85757" opacity="1.000000" stroke="none" 
	d="
M19.507950,82.508041 
	C19.484701,82.517181 19.531200,82.498894 19.507950,82.508041 
z"/>
</svg>