<svg xmlns="http://www.w3.org/2000/svg" viewBox="0 0 24 24"><defs></defs><rect x="0.5" y="16.5" width="10" height="7" rx="1" fill="#9feaff"></rect><path d="M5.5,16.5h-4a1,1,0,0,0-1,1v5a1,1,0,0,0,1,1h4Z" fill="#dff9ff"></path><rect x="13.5" y="10.5" width="10" height="13" rx="1" transform="translate(37 34) rotate(180)" fill="#9feaff"></rect><path d="M18.5,10.5h-4a1,1,0,0,0-1,1v11a1,1,0,0,0,1,1h4Z" fill="#dff9ff"></path><rect x="13.5" y="0.5" width="10" height="7" rx="1" transform="translate(37 8) rotate(180)" fill="#9feaff"></rect><path d="M18.5.5h-4a1,1,0,0,0-1,1v5a1,1,0,0,0,1,1h4Z" fill="#dff9ff"></path><rect x="0.5" y="0.5" width="10" height="13" rx="1" fill="#9feaff"></rect><path d="M5.5.5h-4a1,1,0,0,0-1,1v11a1,1,0,0,0,1,1h4Z" fill="#dff9ff"></path><rect x="0.5" y="16.5" width="10" height="7" rx="1" fill="none" stroke="#00303e" stroke-linecap="round" stroke-linejoin="round"></rect><rect x="13.5" y="10.5" width="10" height="13" rx="1" transform="translate(37 34) rotate(180)" fill="none" stroke="#00303e" stroke-linecap="round" stroke-linejoin="round"></rect><rect x="13.5" y="0.5" width="10" height="7" rx="1" transform="translate(37 8) rotate(180)" fill="none" stroke="#00303e" stroke-linecap="round" stroke-linejoin="round"></rect><rect x="0.5" y="0.5" width="10" height="13" rx="1" fill="none" stroke="#00303e" stroke-linecap="round" stroke-linejoin="round"></rect></svg>