<svg xmlns="http://www.w3.org/2000/svg" version="1.1" xmlns:xlink="http://www.w3.org/1999/xlink" xmlns:svgjs="http://svgjs.dev/svgjs" viewBox="0 0 2400 800"><defs><linearGradient x1="50%" y1="0%" x2="50%" y2="100%" id="sssurf-grad"><stop stop-color="hsla(208, 31%, 68%, 1.00)" stop-opacity="1" offset="0%"></stop><stop stop-color="hsla(208, 85%, 15%, 1.00)" stop-opacity="1" offset="100%"></stop></linearGradient></defs><g fill="url(#sssurf-grad)" transform="matrix(1,0,0,1,0,-81.26806640625)"><path d="M 0 330.49198660069914 Q 450 582.2837297010642 600 317.53614319360753 Q 1050 593.8532582556222 1200 331.87270864007417 Q 1650 468.35362470391226 1800 317.98069965339164 Q 2250 538.4659145967978 2400 340.3011685392162 L 2400 800 L 0 800 L 0 340.11100829704026 Z" transform="matrix(1,0,0,1,0,35)" opacity="0.05"></path><path d="M 0 330.49198660069914 Q 450 582.2837297010642 600 317.53614319360753 Q 1050 593.8532582556222 1200 331.87270864007417 Q 1650 468.35362470391226 1800 317.98069965339164 Q 2250 538.4659145967978 2400 340.3011685392162 L 2400 800 L 0 800 L 0 340.11100829704026 Z" transform="matrix(1,0,0,1,0,70)" opacity="0.24"></path><path d="M 0 330.49198660069914 Q 450 582.2837297010642 600 317.53614319360753 Q 1050 593.8532582556222 1200 331.87270864007417 Q 1650 468.35362470391226 1800 317.98069965339164 Q 2250 538.4659145967978 2400 340.3011685392162 L 2400 800 L 0 800 L 0 340.11100829704026 Z" transform="matrix(1,0,0,1,0,105)" opacity="0.43"></path><path d="M 0 330.49198660069914 Q 450 582.2837297010642 600 317.53614319360753 Q 1050 593.8532582556222 1200 331.87270864007417 Q 1650 468.35362470391226 1800 317.98069965339164 Q 2250 538.4659145967978 2400 340.3011685392162 L 2400 800 L 0 800 L 0 340.11100829704026 Z" transform="matrix(1,0,0,1,0,140)" opacity="0.62"></path><path d="M 0 330.49198660069914 Q 450 582.2837297010642 600 317.53614319360753 Q 1050 593.8532582556222 1200 331.87270864007417 Q 1650 468.35362470391226 1800 317.98069965339164 Q 2250 538.4659145967978 2400 340.3011685392162 L 2400 800 L 0 800 L 0 340.11100829704026 Z" transform="matrix(1,0,0,1,0,175)" opacity="0.81"></path><path d="M 0 330.49198660069914 Q 450 582.2837297010642 600 317.53614319360753 Q 1050 593.8532582556222 1200 331.87270864007417 Q 1650 468.35362470391226 1800 317.98069965339164 Q 2250 538.4659145967978 2400 340.3011685392162 L 2400 800 L 0 800 L 0 340.11100829704026 Z" transform="matrix(1,0,0,1,0,210)" opacity="1.00"></path></g></svg>